<svg version="1.0" xmlns="http://www.w3.org/2000/svg"
	width="80.000000pt" height="80.000000pt" viewBox="0 0 80.000000 80.000000"
	preserveAspectRatio="xMidYMid meet">

	<g transform="translate(0.000000,80.000000) scale(0.100000,-0.100000)"
		fill="#47464B" stroke="none">
		<path
			d="M170 697 c0 -28 -7 -38 -45 -65 -39 -27 -45 -36 -45 -67 l0 -35 160
0 160 0 0 35 c0 31 -6 40 -45 67 -38 27 -45 37 -45 65 l0 33 -70 0 -70 0 0
-33z m120 -16 c0 -23 8 -34 35 -51 34 -21 55 -47 55 -69 0 -7 -48 -11 -140
-11 -118 0 -140 2 -140 15 0 17 26 45 64 70 18 12 26 26 26 46 0 28 2 29 50
29 49 0 50 -1 50 -29z" />
		<path d="M130 590 c0 -5 5 -10 10 -10 6 0 10 5 10 10 0 6 -4 10 -10 10 -5 0
-10 -4 -10 -10z" />
		<path d="M170 590 c0 -5 5 -10 10 -10 6 0 10 5 10 10 0 6 -4 10 -10 10 -5 0
-10 -4 -10 -10z" />
		<path d="M210 590 c0 -5 5 -10 10 -10 6 0 10 5 10 10 0 6 -4 10 -10 10 -5 0
-10 -4 -10 -10z" />
		<path d="M250 590 c0 -5 5 -10 10 -10 6 0 10 5 10 10 0 6 -4 10 -10 10 -5 0
-10 -4 -10 -10z" />
		<path d="M290 590 c0 -5 5 -10 10 -10 6 0 10 5 10 10 0 6 -4 10 -10 10 -5 0
-10 -4 -10 -10z" />
		<path d="M330 590 c0 -5 5 -10 10 -10 6 0 10 5 10 10 0 6 -4 10 -10 10 -5 0
-10 -4 -10 -10z" />
		<path
			d="M125 440 c-3 -5 -17 -10 -31 -10 l-24 0 0 -165 0 -165 325 0 325 0 0
165 0 165 -174 0 c-106 0 -177 4 -181 10 -4 6 -55 10 -120 10 -65 0 -116 -4
-120 -10z m275 -175 l0 -145 -155 0 -155 0 0 145 0 145 155 0 155 0 0 -145z
m299 0 l1 -145 -140 0 -140 0 1 145 1 145 138 0 138 0 1 -145z" />
		<path
			d="M130 265 l0 -105 115 0 115 0 0 105 0 105 -115 0 -115 0 0 -105z
m210 0 l0 -85 -95 0 -95 0 0 85 0 85 95 0 95 0 0 -85z" />
		<path d="M470 360 c0 -6 38 -10 95 -10 57 0 95 4 95 10 0 6 -38 10 -95 10 -57
0 -95 -4 -95 -10z" />
		<path d="M450 300 c0 -5 5 -10 10 -10 6 0 10 5 10 10 0 6 -4 10 -10 10 -5 0
-10 -4 -10 -10z" />
		<path d="M490 300 c0 -5 5 -10 10 -10 6 0 10 5 10 10 0 6 -4 10 -10 10 -5 0
-10 -4 -10 -10z" />
		<path d="M530 300 c0 -5 5 -10 10 -10 6 0 10 5 10 10 0 6 -4 10 -10 10 -5 0
-10 -4 -10 -10z" />
		<path d="M570 300 c0 -5 5 -10 10 -10 6 0 10 5 10 10 0 6 -4 10 -10 10 -5 0
-10 -4 -10 -10z" />
		<path d="M610 300 c0 -5 5 -10 10 -10 6 0 10 5 10 10 0 6 -4 10 -10 10 -5 0
-10 -4 -10 -10z" />
		<path d="M650 300 c0 -5 5 -10 10 -10 6 0 10 5 10 10 0 6 -4 10 -10 10 -5 0
-10 -4 -10 -10z" />
		<path d="M470 205 c0 -25 5 -45 10 -45 6 0 10 20 10 45 0 25 -4 45 -10 45 -5
0 -10 -20 -10 -45z" />
	</g>
</svg>
