<svg version="1.0" xmlns="http://www.w3.org/2000/svg"
	width="22" height="22" viewBox="0 0 512.000000 512.000000"
	preserveAspectRatio="xMidYMid meet">

	<g transform="translate(0.000000,512.000000) scale(0.100000,-0.100000)"
		fill="#000000" stroke="none">
		<path
			d="M112 5007 l-22 -23 0 -2425 0 -2426 23 -21 23 -22 2425 0 2426 0 21
23 22 23 0 2425 0 2426 -23 21 -23 22 -2425 0 -2426 0 -21 -23z m1348 -817 l0
-700 -615 0 -615 0 0 700 0 700 615 0 615 0 0 -700z m2060 295 l0 -405 -960 0
-960 0 0 405 0 405 960 0 960 0 0 -405z m1370 -295 l0 -700 -615 0 -615 0 0
700 0 700 615 0 615 0 0 -700z m-1370 -1250 l0 -1000 -960 0 -960 0 0 1000 0
1000 960 0 960 0 0 -1000z m-2060 -295 l0 -705 -615 0 -615 0 0 705 0 705 615
0 615 0 0 -705z m3430 0 l0 -705 -615 0 -615 0 0 705 0 705 615 0 615 0 0
-705z m-3430 -1200 l0 -355 -615 0 -615 0 0 355 0 355 615 0 615 0 0 -355z
m2060 -430 l0 -785 -960 0 -960 0 0 785 0 785 960 0 960 0 0 -785z m1370 430
l0 -355 -615 0 -615 0 0 355 0 355 615 0 615 0 0 -355z m-3430 -855 l0 -360
-615 0 -615 0 0 360 0 360 615 0 615 0 0 -360z m3430 0 l0 -360 -615 0 -615 0
0 360 0 360 615 0 615 0 0 -360z" />
		<path
			d="M1186 4239 l-26 -20 0 -225 c0 -211 1 -225 20 -244 27 -27 66 -25 95
5 25 24 25 24 25 240 0 216 0 216 -25 240 -30 30 -54 31 -89 4z" />
		<path
			d="M2270 4370 c-27 -27 -25 -66 5 -95 l24 -25 261 0 261 0 24 25 c30 29
32 68 5 95 -19 19 -33 20 -290 20 -257 0 -271 -1 -290 -20z" />
		<path
			d="M3845 4235 c-25 -24 -25 -24 -25 -240 0 -216 0 -216 25 -240 29 -30
68 -32 95 -5 19 19 20 33 20 244 l0 225 -26 20 c-35 27 -59 26 -89 -4z" />
		<path
			d="M1180 3080 c-19 -19 -20 -33 -20 -243 0 -201 2 -226 18 -240 35 -32
97 -21 112 19 6 14 10 117 10 228 0 191 -1 205 -21 230 -25 32 -70 35 -99 6z" />
		<path
			d="M3841 3074 c-20 -25 -21 -39 -21 -240 0 -201 1 -215 20 -234 29 -29
72 -30 103 -3 15 14 17 39 17 240 0 210 -1 224 -20 243 -29 29 -74 26 -99 -6z" />
		<path
			d="M562 1624 c-15 -10 -22 -25 -22 -47 1 -73 16 -77 304 -77 134 0 256
4 270 10 40 15 51 77 19 113 -15 15 -41 17 -282 17 -225 0 -270 -2 -289 -16z" />
		<path
			d="M1784 1662 c-31 -20 -34 -55 -34 -361 0 -298 1 -312 20 -331 20 -20
33 -20 790 -20 757 0 770 0 790 20 19 19 20 33 20 334 0 302 -1 314 -21 340
l-20 26 -767 0 c-422 0 -772 -4 -778 -8z m1446 -352 l0 -220 -670 0 -670 0 0
220 0 220 670 0 670 0 0 -220z" />
		<path
			d="M1771 804 c-19 -25 -21 -40 -21 -206 0 -174 5 -211 34 -230 14 -10
1538 -10 1552 0 29 19 34 56 34 230 0 166 -2 181 -21 206 l-20 26 -769 0 -769
0 -20 -26z m1459 -209 l0 -95 -670 0 -670 0 0 95 0 95 670 0 670 0 0 -95z" />
		<path
			d="M3987 1623 c-32 -36 -21 -98 19 -113 14 -6 136 -10 270 -10 288 0
303 4 304 77 0 60 -13 63 -311 63 -241 0 -267 -2 -282 -17z" />
		<path
			d="M590 783 c-50 -18 -68 -84 -32 -116 16 -15 51 -17 289 -17 244 0 271
2 286 18 31 35 22 92 -18 110 -27 12 -494 16 -525 5z" />
		<path
			d="M4002 778 c-37 -19 -45 -76 -15 -110 15 -16 42 -18 288 -18 251 0
273 1 288 18 24 26 21 75 -4 98 -19 18 -41 19 -278 21 -173 1 -263 -1 -279 -9z" />
	</g>
</svg>
