<svg version="1.0" xmlns="http://www.w3.org/2000/svg"
	width="24" height="24" viewBox="0 0 512.000000 512.000000"
	preserveAspectRatio="xMidYMid meet">

	<g transform="translate(0.000000,512.000000) scale(0.100000,-0.100000)"
		fill="#000000" stroke="none">
		<path
			d="M100 5101 c-19 -10 -48 -35 -65 -55 l-30 -38 -3 -526 c-2 -290 0
-542 3 -560 7 -37 55 -96 96 -118 24 -12 142 -14 776 -14 l748 0 40 23 c22 13
49 40 62 62 22 39 23 45 23 398 l0 357 245 0 245 0 0 -398 0 -397 -341 -340
c-187 -187 -345 -348 -350 -358 -27 -48 -57 -47 1011 -47 1068 0 1038 -1 1011
47 -5 10 -163 171 -350 358 l-341 340 0 397 0 398 245 0 244 0 3 -367 c3 -367
3 -368 26 -401 13 -18 41 -41 62 -52 38 -19 62 -20 780 -20 599 0 747 3 773
14 43 17 95 78 102 118 3 18 5 270 3 560 l-3 526 -30 38 c-17 20 -46 45 -65
55 -34 18 -117 19 -2460 19 -2343 0 -2426 -1 -2460 -19z m1580 -617 l0 -566
-29 -29 -29 -29 -742 0 -742 0 -34 34 -35 35 3 529 c3 514 4 531 23 552 11 12
29 26 40 31 11 4 363 8 783 8 l762 1 0 -566z m1690 391 l0 -175 -810 0 -810 0
0 175 0 175 810 0 810 0 0 -175z m1647 142 l28 -27 3 -531 3 -530 -35 -35 -34
-34 -742 0 -742 0 -29 29 -29 29 0 566 0 566 775 -2 775 -3 27 -28z m-2207
-772 l0 -385 -250 0 -250 0 0 385 0 385 250 0 250 0 0 -385z m330 -770 l315
-315 -895 0 -895 0 315 315 315 315 265 0 265 0 315 -315z" />
		<path d="M828 4195 c-65 -36 -73 -122 -17 -169 97 -82 226 50 142 144 -34 37
-85 47 -125 25z" />
		<path d="M4204 4200 c-32 -13 -64 -59 -64 -92 0 -92 100 -141 169 -82 89 75 3
218 -105 174z" />
		<path
			d="M86 2147 c-25 -14 -48 -39 -63 -66 l-23 -44 0 -809 c0 -785 1 -810
20 -847 22 -43 61 -78 97 -87 23 -6 23 -8 23 -138 0 -89 4 -136 12 -144 17
-17 4799 -17 4816 0 8 8 12 55 12 144 0 130 0 132 23 138 38 9 78 46 98 90 18
39 19 84 19 845 0 797 0 805 -21 848 -14 29 -35 52 -63 68 l-43 25 -2434 0
-2434 0 -39 -23z m1594 -467 l0 -420 -805 0 -805 0 0 381 c0 396 1 407 44 441
19 16 77 18 794 18 l772 0 0 -420z m1688 248 l-3 -173 -805 0 -805 0 -3 173
-2 172 810 0 810 0 -2 -172z m842 -703 l0 -875 -385 0 -385 0 0 875 0 875 385
0 385 0 0 -875z m803 851 c14 -13 29 -35 32 -48 3 -12 4 -382 3 -820 l-3 -798
-28 -27 -27 -28 -355 -3 -355 -3 0 876 0 875 354 0 353 0 26 -24z m-1643
-1061 l0 -665 -810 0 -810 0 0 665 0 665 810 0 810 0 0 -665z m-1690 -245 l0
-420 -775 2 -775 3 -27 28 -28 27 -3 390 -3 390 806 0 805 0 0 -420z m3230
-595 l0 -105 -2350 0 -2350 0 0 105 0 105 2350 0 2350 0 0 -105z" />
		<path d="M828 1775 c-65 -36 -73 -122 -17 -169 97 -82 226 50 142 144 -34 37
-85 47 -125 25z" />
		<path d="M1989 1982 c-46 -38 -16 -122 45 -122 38 0 66 28 66 66 0 64 -62 95
-111 56z" />
		<path d="M2342 1984 c-31 -21 -31 -87 0 -108 49 -35 108 -7 108 50 0 62 -58
94 -108 58z" />
		<path d="M2690 1980 c-28 -28 -27 -84 2 -104 50 -35 112 -4 110 55 -2 61 -70
91 -112 49z" />
		<path d="M3040 1980 c-28 -28 -27 -84 2 -104 49 -35 111 -4 111 54 0 61 -71
92 -113 50z" />
		<path d="M3889 1301 c-81 -81 18 -219 120 -167 17 9 38 30 47 47 52 102 -86
201 -167 120z" />
		<path
			d="M4471 1316 c-54 -30 -67 -106 -25 -155 48 -57 135 -47 169 19 24 46
19 78 -19 116 -37 37 -81 44 -125 20z" />
		<path
			d="M2011 1454 c-48 -34 -51 -57 -51 -439 0 -392 3 -410 59 -439 26 -14
97 -16 543 -16 490 0 514 1 545 20 21 13 35 31 42 57 17 61 15 725 -3 767 -29
69 -3 66 -586 66 -470 0 -528 -2 -549 -16z m1069 -73 c14 -27 14 -705 0 -732
-10 -18 -27 -19 -520 -19 -493 0 -510 1 -520 19 -14 27 -14 705 0 732 10 18
27 19 520 19 493 0 510 -1 520 -19z" />
		<path
			d="M2250 1241 c-7 -15 -6 -23 6 -35 13 -14 55 -16 304 -16 249 0 291 2
304 16 12 12 13 20 6 35 -10 18 -25 19 -310 19 -285 0 -300 -1 -310 -19z" />
		<path
			d="M833 865 c-31 -13 -63 -59 -63 -90 0 -31 31 -82 56 -94 74 -34 154
11 154 86 0 47 -22 81 -66 99 -40 17 -41 17 -81 -1z" />
	</g>
</svg>
