<svg width="24" height="24" viewBox="0 0 24 24" fill="none" xmlns="http://www.w3.org/2000/svg">
<path d="M2 12.0001C3.56208 11.5476 4.43788 11.5299 6 12.0001V20.0001H2V12.0001Z" stroke="#47464B" stroke-linejoin="round"/>
<path d="M18 12C19.5621 11.5929 20.4379 11.6057 22 12V20H18V12Z" stroke="#47464B" stroke-linejoin="round"/>
<rect x="6" y="15" width="12" height="5" stroke="#47464B"/>
<path d="M4 12.0001L4 6.69511C4 5.71709 4.7069 4.87888 5.67472 4.73799C10.3214 4.06156 13.5495 4.06327 18.3166 4.743C19.2881 4.88152 20 5.72131 20 6.70265V12.0001" stroke="#47464B"/>
<path d="M19 20H21V22H20L19 20Z" stroke="#47464B" stroke-linejoin="round"/>
<path d="M5 20H3V22H4L5 20Z" stroke="#47464B" stroke-linejoin="round"/>
<circle cx="8.5" cy="7.5" r="0.5" fill="#47464B"/>
<circle cx="8.5" cy="11.5" r="0.5" fill="#47464B"/>
<circle cx="12.5" cy="7.5" r="0.5" fill="#47464B"/>
<circle cx="12.5" cy="11.5" r="0.5" fill="#47464B"/>
<circle cx="10.5" cy="9.5" r="0.5" fill="#47464B"/>
<circle cx="16.5" cy="7.5" r="0.5" fill="#47464B"/>
<circle cx="16.5" cy="11.5" r="0.5" fill="#47464B"/>
<circle cx="14.5" cy="9.5" r="0.5" fill="#47464B"/>
</svg>
