<svg width="24" height="24" viewBox="0 0 24 24" fill="none" xmlns="http://www.w3.org/2000/svg">
<path d="M6 13.3636C6 13.1499 6.14543 12.9636 6.35274 12.9118V12.9118C10.0605 11.9849 13.9395 11.9849 17.6473 12.9118V12.9118C17.8546 12.9636 18 13.1499 18 13.3636V15C18 15.5523 17.5523 16 17 16H7C6.44772 16 6 15.5523 6 15V13.3636Z" stroke="#47464B"/>
<path d="M20 10.1V4.65985C20 3.69742 19.3145 2.87147 18.3686 2.69411L17.5287 2.53662C13.8747 1.85151 10.1253 1.85151 6.47134 2.53662L5.63142 2.69411C4.68548 2.87147 4 3.69742 4 4.65985V10.1" stroke="#47464B"/>
<path d="M3 20H5V22H4L3 20Z" stroke="#47464B" stroke-linejoin="round"/>
<path d="M19 20H21L20 22H19V20Z" stroke="#47464B" stroke-linejoin="round"/>
<path d="M3 20H21" stroke="#47464B" stroke-linejoin="round"/>
<path d="M3 20H21C21.5523 20 22 19.5523 22 19V12C22 10.8954 21.1046 10 20 10C18.8954 10 18 10.8954 18 12V15C18 15.5523 17.5523 16 17 16H7C6.44772 16 6 15.5523 6 15V12C6 10.8954 5.10457 10 4 10C2.89543 10 2 10.8954 2 12V19C2 19.5523 2.44772 20 3 20Z" stroke="#47464B" stroke-linejoin="round"/>
</svg>
