<svg version="1.0" xmlns="http://www.w3.org/2000/svg"
	width="50.000000pt" height="50.000000pt" viewBox="0 0 50.000000 50.000000"
	preserveAspectRatio="xMidYMid meet">

	<g transform="translate(0.000000,50.000000) scale(0.100000,-0.100000)"
		fill="#47464B" stroke="none">
		<path
			d="M10 385 c0 -19 5 -35 10 -35 6 0 10 -52 10 -135 l0 -135 30 0 30 0 0
135 0 135 100 0 100 0 0 -135 c0 -83 4 -135 10 -135 6 0 10 7 10 15 0 12 14
15 70 15 56 0 70 -3 70 -15 0 -8 5 -15 10 -15 6 0 10 52 10 135 0 83 4 135 10
135 6 0 10 16 10 35 l0 35 -240 0 -240 0 0 -35z m460 0 c0 -13 -31 -15 -220
-15 -189 0 -220 2 -220 15 0 13 31 15 220 15 189 0 220 -2 220 -15z m-400
-160 c0 -77 -4 -125 -10 -125 -6 0 -10 48 -10 125 0 77 4 125 10 125 6 0 10
-48 10 -125z m380 95 l0 -30 -70 0 -70 0 0 30 0 30 70 0 70 0 0 -30z m0 -80
l0 -30 -70 0 -70 0 0 30 0 30 70 0 70 0 0 -30z m0 -80 l0 -30 -70 0 -70 0 0
30 0 30 70 0 70 0 0 -30z" />
		<path d="M370 320 c0 -5 5 -10 10 -10 6 0 10 5 10 10 0 6 -4 10 -10 10 -5 0
-10 -4 -10 -10z" />
		<path d="M370 240 c0 -5 5 -10 10 -10 6 0 10 5 10 10 0 6 -4 10 -10 10 -5 0
-10 -4 -10 -10z" />
		<path d="M370 160 c0 -5 5 -10 10 -10 6 0 10 5 10 10 0 6 -4 10 -10 10 -5 0
-10 -4 -10 -10z" />
	</g>
</svg>
