<svg version="1.0" xmlns="http://www.w3.org/2000/svg"
	width="50.000000pt" height="50.000000pt" viewBox="0 0 50.000000 50.000000"
	preserveAspectRatio="xMidYMid meet">

	<g transform="translate(0.000000,50.000000) scale(0.100000,-0.100000)"
		fill="#47464B" stroke="none">
		<path
			d="M55 250 l0 -220 195 0 195 0 0 220 0 220 -195 0 -195 0 0 -220z m125
170 c0 -29 -1 -30 -50 -30 -49 0 -50 1 -50 30 0 29 1 30 50 30 49 0 50 -1 50
-30z m160 -170 l0 -200 -70 0 -70 0 0 200 0 200 70 0 70 0 0 -200z m80 0 l0
-200 -30 0 -30 0 0 200 0 200 30 0 30 0 0 -200z m-300 101 c0 -11 -4 -23 -10
-26 -5 -3 -10 -40 -10 -81 l0 -74 30 0 30 0 0 74 c0 41 -4 78 -10 81 -19 12
-11 45 10 45 19 0 20 -7 20 -115 l0 -115 -40 0 c-36 0 -40 -2 -40 -25 0 -14
-4 -25 -10 -25 -6 0 -10 53 -10 140 0 133 1 140 20 140 13 0 20 -7 20 -19z
m20 -96 c0 -37 -4 -65 -10 -65 -6 0 -10 28 -10 65 0 37 4 65 10 65 6 0 10 -28
10 -65z m40 -150 c0 -10 -10 -15 -30 -15 -20 0 -30 5 -30 15 0 10 10 15 30 15
20 0 30 -5 30 -15z m0 -45 c0 -5 -22 -10 -50 -10 -27 0 -50 5 -50 10 0 6 23
10 50 10 28 0 50 -4 50 -10z" />
		<path d="M220 250 c0 -16 5 -30 10 -30 6 0 10 14 10 30 0 17 -4 30 -10 30 -5
0 -10 -13 -10 -30z" />
		<path d="M380 250 c0 -16 5 -30 10 -30 6 0 10 14 10 30 0 17 -4 30 -10 30 -5
0 -10 -13 -10 -30z" />
	</g>
</svg>
